<svg viewBox="0 0 24 24" fill="none" xmlns="http://www.w3.org/2000/svg"><path d="M9.9 4.23999C10.5883 4.07887 11.2931 3.99833 12 3.99999C17.9924 3.99999 21.7863 9.86269 22.7544 11.5505C22.9157 11.8318 22.9107 12.1709 22.7499 12.4526C22.1972 13.4204 21.558 14.3367 20.84 15.19M14.12 14.12C13.8454 14.4147 13.5141 14.6511 13.1462 14.8151C12.7782 14.9791 12.3809 15.0673 11.9781 15.0744C11.5753 15.0815 11.1752 15.0074 10.8016 14.8565C10.4281 14.7056 10.0887 14.481 9.80385 14.1961C9.51897 13.9113 9.29439 13.5719 9.14351 13.1984C8.99262 12.8248 8.91853 12.4247 8.92563 12.0219C8.93274 11.6191 9.02091 11.2218 9.18488 10.8538C9.34884 10.4858 9.58525 10.1546 9.88 9.87999M12 20C13.7663 19.9711 15.4869 19.4784 16.9928 18.5804C17.5128 18.2703 17.5592 17.5592 17.1311 17.1311L6.67865 6.67865C6.32443 6.32443 5.76075 6.28472 5.37747 6.60727C3.72404 7.99874 2.32715 9.67056 1.25138 11.5469C1.08977 11.8288 1.08448 12.1686 1.24616 12.4504C2.21504 14.1394 6.00866 20 12 20Z" stroke="#131A20" stroke-width="1.5" stroke-linecap="round" stroke-linejoin="round" style="stroke: rgb(34, 34, 34);"/><path d="M1 1L23 23" stroke="#222222" stroke-width="1.5" stroke-linecap="round" stroke-linejoin="round" style="stroke: rgb(34, 34, 34);"/></svg>