<svg viewBox="0 0 24 24" fill="none" xmlns="http://www.w3.org/2000/svg"><path d="M1.23701 12.4345C1.08073 12.1613 1.08073 11.8387 1.23701 11.5655C2.19095 9.89791 5.98962 4 12 4C18.0104 4 21.809 9.89791 22.763 11.5655C22.9193 11.8387 22.9193 12.1613 22.763 12.4345C21.809 14.1021 18.0104 20 12 20C5.98962 20 2.19095 14.1021 1.23701 12.4345Z" stroke="black" stroke-width="1.5" stroke-linecap="round" stroke-linejoin="round" style="stroke: rgb(34, 34, 34);"/><path d="M12 15C13.6569 15 15 13.6569 15 12C15 10.3431 13.6569 9 12 9C10.3431 9 9 10.3431 9 12C9 13.6569 10.3431 15 12 15Z" stroke="black" stroke-width="1.5" style="stroke: rgb(34, 34, 34);"/></svg>